<svg width="498" height="146" viewBox="0 0 498 146" fill="none" xmlns="http://www.w3.org/2000/svg">
    <path id="helloline" d="M7 128.055C18.0878 119.774 30.7625 111.522 42.8358 104.731C66.2232 91.5756 82.3566 71.3949 91.1835 45.8433C95.7301 32.6823 98.2225 5.94942 76.3596 7.96754C60.4266 9.43828 55.3553 30.1061 52.6957 42.7833C50.3878 53.7843 47.4117 64.184 46.9158 75.4911C46.1485 92.9848 46.4681 110.055 43.3118 117.375C40.7565 161.396 41.1716 130.922 42.0198 124.043C43.9288 108.559 51.2117 96.2623 64.5957 88.2751C76.7836 81.0016 98.5328 71.4949 102.811 92.559C105.196 104.3 99.2922 116.205 101.791 127.511C103.431 134.926 112.931 137.699 119.335 138.663C131.98 140.566 143.75 136.043 155.239 131.319C174.07 123.576 193.567 111.365 193.727 88.7511C193.832 73.9398 175.385 69.4974 164.079 76.1031C154.285 81.8257 150.928 99.5644 152.995 109.899C154.625 118.047 160.883 128.362 167.479 133.359C180.694 143.37 200.693 138.297 214.875 133.495C244.281 123.538 268.322 92.3831 280.154 64.5432C285.259 52.5317 304.033 10.4005 277.91 10.6875C255.056 10.9387 247.353 40.4086 245.407 58.2872C243.257 78.0338 241.513 102.269 248.943 121.255C259.568 148.409 298.543 133.264 315.582 120.643C323.954 114.441 329.856 106.293 336.118 98.135C341.893 90.6117 348.596 83.8617 353.186 75.4911C360.878 61.4647 367.123 41.8913 368.758 26.0554C369.612 17.7852 367.121 8.58533 357.606 7.15154C346.768 5.51847 342.608 17.4583 338.294 24.9674C327.944 42.9847 324.512 60.8358 321.294 81.2711C319.285 94.0325 319.291 106.156 324.966 118.059C328.339 125.133 334.481 135.126 343.054 136.351C366.954 139.765 379.995 126.91 391.742 107.995C396.351 100.574 399.397 91.8434 404.254 84.6711C409.227 77.3259 423.008 75.9671 430.978 75.9671C450.633 75.9671 472.706 93.5621 490.409 77.1231C495.36 72.5257 479.635 86.5304 472.933 87.3911C464.348 88.4938 454.574 81.3392 446.821 78.7551C425.812 71.752 400.858 79.5316 395.822 103.575C394.241 111.122 394.843 121.201 398.27 128.191C401.962 135.722 411.599 136.121 418.942 135.807C437.138 135.028 449.985 125.421 453.213 106.975C455.299 95.0568 450.507 87.2903 446.413 80.6471" stroke="black" stroke-width="12.5" stroke-linecap="round" stroke-linejoin="round" />
</svg>